<mxfile host="app.diagrams.net" modified="2023-05-08T15:16:59.844Z" agent="Mozilla/5.0 (Windows NT 10.0; Win64; x64) AppleWebKit/537.36 (KHTML, like Gecko) Chrome/112.0.0.0 Safari/537.36" version="21.2.2" etag="JMQFk1omhMeQDvvGOVea" type="github">
  <diagram name="Page-1" id="qLlO39WpODb3-5eMBKRL">
    <mxGraphModel>
      <root>
        <mxCell id="0" />
        <mxCell id="1" parent="0" />
      </root>
    </mxGraphModel>
  </diagram>
</mxfile>
